<svg width="160" height="160" viewBox="0 0 160 160" fill="none" xmlns="http://www.w3.org/2000/svg">
<path d="M60.0845 48.8882C41.7655 31.0643 54.3842 0 79.9436 0C105.503 0 118.122 31.0643 99.8026 48.8882L79.9436 68.2105L60.0845 48.8882Z" fill="#CBEA7B"/>
<path d="M60.1998 111.112C41.8807 128.936 54.4994 160 80.0588 160C105.618 160 118.237 128.936 99.9178 111.112L80.0588 91.7895L60.1998 111.112Z" fill="#CBEA7B"/>
<path d="M48.8882 99.9155C31.0643 118.235 0 105.616 0 80.0564C0 54.4971 31.0643 41.8784 48.8882 60.1974L68.2105 80.0564L48.8882 99.9155Z" fill="#CBEA7B"/>
<path d="M111.112 99.8002C128.936 118.119 160 105.501 160 79.9412C160 54.3819 128.936 41.7631 111.112 60.0822L91.7895 79.9412L111.112 99.8002Z" fill="#CBEA7B"/>
</svg>
